<?xml version="1.0" encoding="UTF-8" standalone="no"?>
<!-- Generator: Adobe Illustrator 24.0.3, SVG Export Plug-In . SVG Version: 6.00 Build 0)  -->

<svg
   version="1.1"
   id="Black_CMYK_Horizontal"
   x="0px"
   y="0px"
   viewBox="0 0 24.000001 24"
   xml:space="preserve"
   sodipodi:docname="logo-horizontal.svg"
   width="24"
   height="24"
   inkscape:version="1.2 (dc2aedaf03, 2022-05-15)"
   xmlns:inkscape="http://www.inkscape.org/namespaces/inkscape"
   xmlns:sodipodi="http://sodipodi.sourceforge.net/DTD/sodipodi-0.dtd"
   xmlns="http://www.w3.org/2000/svg"
   xmlns:svg="http://www.w3.org/2000/svg"><defs
   id="defs6" /><sodipodi:namedview
   id="namedview4"
   pagecolor="#ffffff"
   bordercolor="#666666"
   borderopacity="1.0"
   inkscape:showpageshadow="2"
   inkscape:pageopacity="0.0"
   inkscape:pagecheckerboard="0"
   inkscape:deskcolor="#d1d1d1"
   showgrid="false"
   inkscape:lockguides="false"
   inkscape:zoom="18.576616"
   inkscape:cx="34.102013"
   inkscape:cy="8.8283032"
   inkscape:window-width="1920"
   inkscape:window-height="1009"
   inkscape:window-x="-8"
   inkscape:window-y="-8"
   inkscape:window-maximized="1"
   inkscape:current-layer="Black_CMYK_Horizontal" />
<path
   id="Identity"
   d="m 4.5978945,2.5134851 c -0.2422313,0 -0.4118934,0.072671 -0.5814552,0.242233 C 3.8468763,2.9252814 3.7742064,3.1191657 3.7742064,3.3371732 V 13.17176 c 0,0.726692 0.1450586,1.453405 0.4357354,2.180101 0.2906784,0.726693 0.629907,1.356606 1.0659229,1.913737 0.4117934,0.557131 0.9207766,1.114087 1.5021313,1.622777 0.5813547,0.532908 1.1140881,0.969031 1.6227745,1.308154 0.4844604,0.339127 1.01748,0.678164 1.550387,0.993063 0.5329085,0.3149 0.9203025,0.532818 1.1383105,0.629713 0.218008,0.121115 0.412084,0.194167 0.533199,0.266836 0.09688,0.04845 0.21763,0.07241 0.338749,0.07241 0.121114,0 0.242328,-0.02394 0.339218,-0.07241 0.145341,-0.04846 0.315191,-0.145721 0.533199,-0.266836 0.218007,-0.121116 0.6054,-0.314813 1.13831,-0.629713 0.532908,-0.314899 1.065926,-0.653936 1.550387,-0.993063 0.484462,-0.339123 1.04142,-0.79947 1.622774,-1.308154 0.581358,-0.532907 1.090342,-1.065646 1.502135,-1.622777 0.41179,-0.557131 0.774768,-1.21127 1.065448,-1.913737 0.290676,-0.726696 0.436208,-1.453409 0.436208,-2.180101 V 3.3371732 c 0,-0.2180075 -0.07268,-0.4118918 -0.242234,-0.5814551 C 19.7373,2.5861574 19.543416,2.5134851 19.325405,2.5134851 Z m 7.3635215,2.107243 h 6.055836 v 8.6238889 c 0,3.560803 -6.055836,6.63682 -6.055836,6.63682 z"
   style="stroke-width:0.242234" />
</svg>
