<?xml version="1.0" encoding="UTF-8" standalone="no"?>
<svg
   fill="#000000"
   viewBox="0 0 48 48"
   width="24px"
   height="24px"
   version="1.1"
   id="svg4"
   sodipodi:docname="icons8-docker-24.svg"
   inkscape:version="1.2 (dc2aedaf03, 2022-05-15)"
   xmlns:inkscape="http://www.inkscape.org/namespaces/inkscape"
   xmlns:sodipodi="http://sodipodi.sourceforge.net/DTD/sodipodi-0.dtd"
   xmlns="http://www.w3.org/2000/svg"
   xmlns:svg="http://www.w3.org/2000/svg">
  <defs
     id="defs8" />
  <sodipodi:namedview
     id="namedview6"
     pagecolor="#ffffff"
     bordercolor="#000000"
     borderopacity="0.25"
     inkscape:showpageshadow="2"
     inkscape:pageopacity="0.0"
     inkscape:pagecheckerboard="0"
     inkscape:deskcolor="#d1d1d1"
     showgrid="false"
     inkscape:zoom="32.333333"
     inkscape:cx="10.237113"
     inkscape:cy="12"
     inkscape:window-width="1920"
     inkscape:window-height="974"
     inkscape:window-x="-11"
     inkscape:window-y="-11"
     inkscape:window-maximized="1"
     inkscape:current-layer="svg4" />
  <path
     d="m23.6 8.3738c-.2396 0-.4341.1945-.4341.4341v2.6044c0 .2396.1945.4341.4341.4341h2.6044c.2396 0 .4341-.1945.4341-.4341V8.8078c0-.2396-.1945-.4341-.4341-.4341zM13.1825 13.5825c-.2396 0-.4341.1945-.4341.4341v2.6044c0 .2396.1945.4341.4341.4341h2.6044c.2396 0 .4341-.1945.4341-.4341v-2.6044c0-.2396-.1945-.4341-.4341-.4341zm5.2088 0c-.2396 0-.4341.1945-.4341.4341v2.6044c0 .2396.1945.4341.4341.4341h2.6044c.2396 0 .4341-.1945.4341-.4341v-2.6044c0-.2396-.1945-.4341-.4341-.4341zm5.2088 0c-.2396 0-.4341.1945-.4341.4341v2.6044c0 .2396.1945.4341.4341.4341h2.6044c.2396 0 .4341-.1945.4341-.4341v-2.6044c0-.2396-.1945-.4341-.4341-.4341zm13.0032 1.9974-.3934.5646c-.4922.7587-.8505 1.5944-1.0614 2.4721-.3985 1.6781-.1574 3.2536.6986 4.6-1.0339.5738-2.7966.7712-3.1317.7833H5.8035c-.9593 0-1.7363.777-1.7363 1.7363 0 1.7363.3765 4.2752 1.2038 6.5245.9454 2.469 2.3529 4.2874 4.1829 5.4004 2.0505 1.251 5.3822 1.9652 9.1594 1.9652 1.7059.0053 3.4095-.1487 5.0867-.4595 2.3318-.4263 4.5754-1.2376 6.6381-2.4009 1.6998-.9801 3.2292-2.2275 4.5305-3.6929 2.1747-2.4516 3.4703-5.1824 4.4339-7.608.0043-.0024.0074-.0031.0119-.0069 2.6018.105 4.1766-.9002 5.0256-1.7363.5365-.507.9559-1.1259 1.2276-1.8109l.1696-.4968-.4103-.3222c-.1129-.0894-1.1678-.8834-3.3928-.8834-.5877.0024-1.1742.0537-1.7532.1509-.4306-2.9386-2.8697-4.373-2.9791-4.4373zM7.9738 18.7913c-.2396 0-.4341.1945-.4341.4341v2.6044c0 .2396.1945.4341.4341.4341h2.6044c.2396 0 .4341-.1945.4341-.4341v-2.6044c0-.2396-.1945-.4341-.4341-.4341zm5.2088 0c-.2396 0-.4341.1945-.4341.4341v2.6044c0 .2396.1945.4341.4341.4341h2.6044c.2396 0 .4341-.1945.4341-.4341v-2.6044c0-.2396-.1945-.4341-.4341-.4341zm5.2088 0c-.2396 0-.4341.1945-.4341.4341v2.6044c0 .2396.1945.4341.4341.4341h2.6044c.2396 0 .4341-.1945.4341-.4341v-2.6044c0-.2396-.1945-.4341-.4341-.4341zm5.2088 0c-.2396 0-.4341.1945-.4341.4341v2.6044c0 .2396.1945.4341.4341.4341h2.6044c.2396 0 .4341-.1945.4341-.4341v-2.6044c0-.2396-.1945-.4341-.4341-.4341zm5.2088 0c-.2396 0-.4341.1945-.4341.4341v2.6044c0 .2396.1945.4341.4341.4341h2.6044c.2396 0 .4341-.1945.4341-.4341v-2.6044c0-.2396-.1945-.4341-.4341-.4341z"
     id="path2"
     style="stroke-width:0.868126" />
</svg>
