<?xml version="1.0" encoding="UTF-8" standalone="no"?>
<svg
   fill="#000000"
   viewBox="0 0 48 48"
   width="24px"
   height="24px"
   version="1.1"
   id="svg4"
   sodipodi:docname="icons8-docker-24.svg"
   inkscape:version="1.2 (dc2aedaf03, 2022-05-15)"
   xmlns:inkscape="http://www.inkscape.org/namespaces/inkscape"
   xmlns:sodipodi="http://sodipodi.sourceforge.net/DTD/sodipodi-0.dtd"
   xmlns="http://www.w3.org/2000/svg"
   xmlns:svg="http://www.w3.org/2000/svg">
  <defs
     id="defs8" />
  <sodipodi:namedview
     id="namedview6"
     pagecolor="#ffffff"
     bordercolor="#000000"
     borderopacity="0.25"
     inkscape:showpageshadow="2"
     inkscape:pageopacity="0.0"
     inkscape:pagecheckerboard="0"
     inkscape:deskcolor="#d1d1d1"
     showgrid="false"
     inkscape:zoom="32.333333"
     inkscape:cx="10.237113"
     inkscape:cy="12"
     inkscape:window-width="1920"
     inkscape:window-height="974"
     inkscape:window-x="-11"
     inkscape:window-y="-11"
     inkscape:window-maximized="1"
     inkscape:current-layer="svg4" />
  <path
     d="m 22.697812,8.3737501 c -0.239603,0 -0.434062,0.1944602 -0.434062,0.4340628 v 2.6043761 c 0,0.239604 0.194459,0.434061 0.434062,0.434061 h 2.604376 c 0.239603,0 0.434062,-0.194457 0.434062,-0.434061 V 8.8078129 c 0,-0.2396026 -0.194459,-0.4340628 -0.434062,-0.4340628 z M 12.280305,13.582503 c -0.239603,0 -0.434062,0.194461 -0.434062,0.434062 v 2.604377 c 0,0.239603 0.194459,0.434062 0.434062,0.434062 h 2.604376 c 0.239604,0 0.434063,-0.194459 0.434063,-0.434062 v -2.604377 c 0,-0.239601 -0.194459,-0.434062 -0.434063,-0.434062 z m 5.208753,0 c -0.239602,0 -0.434062,0.194461 -0.434062,0.434062 v 2.604377 c 0,0.239603 0.19446,0.434062 0.434062,0.434062 h 2.604377 c 0.239603,0 0.434062,-0.194459 0.434062,-0.434062 v -2.604377 c 0,-0.239601 -0.194459,-0.434062 -0.434062,-0.434062 z m 5.208754,0 c -0.239603,0 -0.434062,0.194461 -0.434062,0.434062 v 2.604377 c 0,0.239603 0.194459,0.434062 0.434062,0.434062 h 2.604376 c 0.239603,0 0.434062,-0.194459 0.434062,-0.434062 v -2.604377 c 0,-0.239601 -0.194459,-0.434062 -0.434062,-0.434062 z m 13.003233,1.997367 -0.393371,0.56462 c -0.492226,0.758743 -0.850464,1.594449 -1.06142,2.472125 -0.398469,1.678086 -0.157401,3.253584 0.698572,4.600046 -1.033939,0.573831 -2.7966,0.771194 -3.131697,0.783346 H 4.9012382 c -0.9592788,0 -1.736251,0.776974 -1.736251,1.736254 0,1.73625 0.3765222,4.275192 1.2038459,6.524505 0.9453886,2.468951 2.3529321,4.287415 4.1829408,5.400351 2.0505131,1.250969 5.3821881,1.965151 9.1594021,1.965151 1.705867,0.0053 3.409455,-0.148705 5.086673,-0.459494 2.331786,-0.426251 4.575443,-1.237622 6.638109,-2.400911 1.699789,-0.980114 3.22921,-2.227528 4.53053,-3.692924 2.174656,-2.451586 3.470265,-5.182425 4.433883,-7.607969 0.0043,-0.0024 0.0074,-0.0031 0.01187,-0.0069 2.601772,0.105044 4.176607,-0.900245 5.025633,-1.73625 0.536501,-0.506985 0.95586,-1.125906 1.227584,-1.810857 l 0.169554,-0.496758 -0.410324,-0.322154 c -0.112857,-0.08942 -1.167807,-0.883388 -3.392811,-0.883388 -0.587723,0.0024 -1.174169,0.05367 -1.753207,0.150907 -0.430591,-2.938606 -2.869711,-4.373034 -2.979095,-4.437278 z M 7.0715521,18.791255 c -0.2396027,0 -0.4340629,0.194461 -0.4340629,0.434064 v 2.604375 c 0,0.239605 0.1944602,0.434063 0.4340629,0.434063 h 2.6043767 c 0.2396025,0 0.4340622,-0.194458 0.4340622,-0.434063 v -2.604375 c 0,-0.239603 -0.1944597,-0.434064 -0.4340622,-0.434064 z m 5.2087529,0 c -0.239603,0 -0.434062,0.194461 -0.434062,0.434064 v 2.604375 c 0,0.239605 0.194459,0.434063 0.434062,0.434063 h 2.604376 c 0.239604,0 0.434063,-0.194458 0.434063,-0.434063 v -2.604375 c 0,-0.239603 -0.194459,-0.434064 -0.434063,-0.434064 z m 5.208753,0 c -0.239602,0 -0.434062,0.194461 -0.434062,0.434064 v 2.604375 c 0,0.239605 0.19446,0.434063 0.434062,0.434063 h 2.604377 c 0.239603,0 0.434062,-0.194458 0.434062,-0.434063 v -2.604375 c 0,-0.239603 -0.194459,-0.434064 -0.434062,-0.434064 z m 5.208754,0 c -0.239603,0 -0.434062,0.194461 -0.434062,0.434064 v 2.604375 c 0,0.239605 0.194459,0.434063 0.434062,0.434063 h 2.604376 c 0.239603,0 0.434062,-0.194458 0.434062,-0.434063 v -2.604375 c 0,-0.239603 -0.194459,-0.434064 -0.434062,-0.434064 z m 5.208753,0 c -0.239603,0 -0.434062,0.194461 -0.434062,0.434064 v 2.604375 c 0,0.239605 0.194459,0.434063 0.434062,0.434063 h 2.604377 c 0.239602,0 0.434062,-0.194458 0.434062,-0.434063 v -2.604375 c 0,-0.239603 -0.19446,-0.434064 -0.434062,-0.434064 z"
     id="path2"
     style="stroke-width:0.868126" />
</svg>
