<?xml version="1.0" encoding="UTF-8" standalone="no"?>
<svg
   width="24"
   height="24"
   viewBox="0 0 24 24"
   version="1.1"
   id="svg8"
   sodipodi:docname="nginx_nok.svg"
   inkscape:version="1.2 (dc2aedaf03, 2022-05-15)"
   xmlns:inkscape="http://www.inkscape.org/namespaces/inkscape"
   xmlns:sodipodi="http://sodipodi.sourceforge.net/DTD/sodipodi-0.dtd"
   xmlns="http://www.w3.org/2000/svg"
   xmlns:svg="http://www.w3.org/2000/svg"
   xmlns:rdf="http://www.w3.org/1999/02/22-rdf-syntax-ns#"
   xmlns:cc="http://creativecommons.org/ns#"
   xmlns:dc="http://purl.org/dc/elements/1.1/">
  <defs
     id="defs12" />
  <sodipodi:namedview
     id="namedview10"
     pagecolor="#ffffff"
     bordercolor="#666666"
     borderopacity="1.0"
     inkscape:showpageshadow="2"
     inkscape:pageopacity="0.0"
     inkscape:pagecheckerboard="0"
     inkscape:deskcolor="#d1d1d1"
     showgrid="false"
     inkscape:zoom="25.90625"
     inkscape:cx="13.568154"
     inkscape:cy="12.931242"
     inkscape:window-width="1920"
     inkscape:window-height="1009"
     inkscape:window-x="-8"
     inkscape:window-y="-8"
     inkscape:window-maximized="1"
     inkscape:current-layer="svg8" />
  <title
     id="title2">file_type_nginx</title>
  <g
     id="g1589"
     style="fill:#000000">
    <g
       id="g1584"
       style="fill:#000000">
      <path
         id="path6"
         style="fill:#000000;stroke-width:0.735092"
         d="m 6.8234619,7.970075 q 0,3.990814 0,7.982363 a 1.1092537,1.1092537 0 0 0 0.3138842,0.799045 1.2106963,1.2106963 0 0 0 1.5142893,0.151429 1.1496837,1.1496837 0 0 0 0.503538,-0.950474 c 0,-1.925941 -0.00368,-3.851882 0,-5.777822 q 2.6338346,3.153544 5.2786946,6.298267 a 2.0825153,2.0825153 0 0 0 1.911239,0.574842 1.1474784,1.1474784 0 0 0 0.9196,-1.007811 q 0.0059,-4.073144 0,-8.1455535 a 1.1629154,1.1629154 0 0 0 -2.31701,0 c 0,1.9568146 -0.01176,3.9114235 0,5.8675035 C 13.223172,11.7286 11.519964,9.6776935 9.8020542,7.6370784 A 2.0707539,2.0707539 0 0 0 7.8547958,6.8637617 1.1607101,1.1607101 0 0 0 6.8234619,7.970075 Z M 12.102157,1.6938604 h 0.04778 a 7.6581873,7.6581873 0 0 1 0.714509,0.3881286 q 3.990814,2.2949568 7.981628,4.5913839 a 0.58219278,0.58219278 0 0 1 0.304328,0.5792524 c -0.0059,3.2263187 0,6.4519017 -0.0037,9.6767497 a 0.59762971,0.59762971 0 0 1 -0.261692,0.372692 q -4.243686,2.443445 -8.488106,4.88395 a 0.43149894,0.43149894 0 0 1 -0.482956,0.0272 Q 7.6651421,19.777121 3.424397,17.332205 A 0.51456432,0.51456432 0 0 1 3.1303602,16.842634 q 0,-4.838375 0,-9.6760144 A 0.50941868,0.50941868 0 0 1 3.4148408,6.674108 Q 7.400509,4.3820915 11.386177,2.0871346 c 0.2367,-0.1352569 0.468989,-0.2785998 0.71598,-0.3932742" />
    </g>
  </g>
  <metadata
     id="metadata301">
    <rdf:RDF>
      <cc:Work
         rdf:about="">
        <dc:title>file_type_nginx</dc:title>
      </cc:Work>
    </rdf:RDF>
  </metadata>
</svg>
