<?xml version="1.0" encoding="UTF-8" standalone="no"?>
<svg
   role="img"
   viewBox="0 0 24 24"
   version="1.1"
   id="svg6"
   sodipodi:docname="portainer.svg"
   inkscape:version="1.2 (dc2aedaf03, 2022-05-15)"
   xmlns:inkscape="http://www.inkscape.org/namespaces/inkscape"
   xmlns:sodipodi="http://sodipodi.sourceforge.net/DTD/sodipodi-0.dtd"
   xmlns="http://www.w3.org/2000/svg"
   xmlns:svg="http://www.w3.org/2000/svg"
   xmlns:rdf="http://www.w3.org/1999/02/22-rdf-syntax-ns#"
   xmlns:cc="http://creativecommons.org/ns#"
   xmlns:dc="http://purl.org/dc/elements/1.1/">
  <defs
     id="defs10" />
  <sodipodi:namedview
     id="namedview8"
     pagecolor="#ffffff"
     bordercolor="#000000"
     borderopacity="0.25"
     inkscape:showpageshadow="2"
     inkscape:pageopacity="0.0"
     inkscape:pagecheckerboard="0"
     inkscape:deskcolor="#d1d1d1"
     showgrid="false"
     inkscape:zoom="19.755305"
     inkscape:cx="1.923534"
     inkscape:cy="14.932698"
     inkscape:window-width="1920"
     inkscape:window-height="974"
     inkscape:window-x="-11"
     inkscape:window-y="-11"
     inkscape:window-maximized="1"
     inkscape:current-layer="svg6" />
  <title
     id="title2">Portainer</title>
  <path
     d="M 12.441353,1.491598 V 2.3874395 L 12.432553,2.3743045 7.0855262,5.462024 H 4.4838645 v 0.65765 H 9.1767421 V 9.3054719 H 10.877351 V 6.1187984 h 1.564002 v 9.1212956 c 0.02365,0 0.472879,-0.0088 0.657651,0.07966 v -9.20008 h 0.464998 v 9.289429 c 0.256579,0.128727 0.481635,0.273218 0.657649,0.472878 V 6.1205498 h 5.294484 V 5.4637747 H 18.406623 L 13.099004,2.3988235 V 1.491598 Z m 0,1.6375595 V 5.4620232 H 8.3999961 Z m 0.657651,0.027146 3.993194,2.305719 H 13.099004 Z M 9.4972486,6.119674 H 10.556845 V 7.5961048 H 9.4972486 Z M 5.349932,8.5103358 V 10.218826 H 7.0505419 V 8.5112116 Z m 1.9177835,0 V 10.218826 H 8.96745 V 8.5112116 Z M 5.349932,10.41148 v 1.708492 h 1.7006099 v -1.707614 z m 1.9177835,0 v 1.708492 H 8.96745 v -1.707614 z m 1.9090266,0 v 1.708492 h 1.7006089 v -1.707614 z m -3.8670923,1.965074 a 3.266362,3.266362 0 0 0 -0.4325961,1.620921 c 0,1.074482 0.5289231,2.021114 1.3310646,2.614841 0.2092922,-0.05605 0.4177088,-0.08757 0.6340069,-0.09634 0.08757,0 0.1444906,0.0088 0.2329363,0.01664 0.2486989,-1.042958 1.2110935,-1.74089 2.3337414,-1.74089 0.6340071,0 1.2592571,0.176016 1.6848471,0.584967 0.200535,-0.416833 0.264461,-0.88183 0.264461,-1.379227 0,-0.569206 -0.14449,-1.131405 -0.432595,-1.620046 z m 4.2278809,2.76721 c -1.0595976,0 -1.9493089,0.739094 -2.182245,1.725131 a 0.80739568,0.80739568 0 0 0 -0.2408178,-0.0078 2.2409169,2.2409169 0 0 0 -2.2452954,2.23829 2.2461713,2.2461713 0 0 0 2.711168,2.18925 2.258431,2.258431 0 0 0 1.9965968,1.219851 c 0.7548527,0 1.4203847,-0.376552 1.8302127,-0.946633 a 2.2391655,2.2391655 0 0 0 3.665684,-1.725143 c 0,-0.496525 -0.169011,-0.962395 -0.441354,-1.331065 A 2.2391655,2.2391655 0 0 0 11.246022,15.931034 2.2540526,2.2540526 0 0 0 9.5375307,15.144653 Z"
     id="path4"
     style="stroke-width:0.8757" />
  <metadata
     id="metadata794">
    <rdf:RDF>
      <cc:Work
         rdf:about="">
        <dc:title>Portainer</dc:title>
      </cc:Work>
    </rdf:RDF>
  </metadata>
</svg>
