<?xml version="1.0" encoding="UTF-8" standalone="no"?>
<svg
   width="24"
   height="24"
   viewBox="0 0 24 24"
   version="1.1"
   id="svg4"
   sodipodi:docname="proxmox.svg"
   inkscape:version="1.2 (dc2aedaf03, 2022-05-15)"
   xmlns:inkscape="http://www.inkscape.org/namespaces/inkscape"
   xmlns:sodipodi="http://sodipodi.sourceforge.net/DTD/sodipodi-0.dtd"
   xmlns="http://www.w3.org/2000/svg"
   xmlns:svg="http://www.w3.org/2000/svg">
  <defs
     id="defs8" />
  <sodipodi:namedview
     id="namedview6"
     pagecolor="#ffffff"
     bordercolor="#666666"
     borderopacity="1.0"
     inkscape:showpageshadow="2"
     inkscape:pageopacity="0.0"
     inkscape:pagecheckerboard="0"
     inkscape:deskcolor="#d1d1d1"
     showgrid="false"
     inkscape:zoom="25.90625"
     inkscape:cx="16.038601"
     inkscape:cy="12.931242"
     inkscape:window-width="1920"
     inkscape:window-height="1009"
     inkscape:window-x="-8"
     inkscape:window-y="-8"
     inkscape:window-maximized="1"
     inkscape:current-layer="svg4" />
  <path
     d="m 5.7316606,2.9843487 c -0.96395,0.4909311 -0.96395,0.566561 -0.062361,1.5756234 4.9995364,5.5667619 6.1956824,6.8829879 6.2852434,6.8829879 0.124724,0.01393 7.052161,-7.5570229 7.128454,-7.7845762 0.03118,-0.062361 -0.183104,-0.2766462 -0.459751,-0.4736822 -0.366208,-0.2766464 -0.763597,-0.3834569 -1.513263,-0.4146378 -1.40645,-0.089561 -1.896717,0.2142849 -3.642176,2.1733654 -0.794779,0.8843393 -1.468814,1.6207361 -1.468814,1.6207361 -0.01393,0 -0.670054,-0.7184844 -1.451563,-1.5895553 C 9.76592,4.1035389 8.8649951,3.2298142 8.5604855,3.060642 7.855269,2.6632532 6.4183007,2.6320724 5.7270166,2.9843487 Z M 2.518052,5.2340074 c -0.7496651,0.2905781 -1.147054,0.566561 -1.147054,0.7775287 0,0.1068107 1.1782347,1.4860616 2.6019351,3.0616857 1.437632,1.5756232 2.5986177,2.8918492 2.5986177,2.9197142 0,0.03118 -1.1782345,1.347405 -2.6019349,2.923029 -1.4376322,1.589555 -2.584686,2.982076 -2.567437,3.102819 0.076293,0.414636 1.3301578,0.936084 2.2456781,0.936084 1.4860618,-0.01725 1.821089,-0.276645 4.9584048,-3.717807 1.5756242,-1.727546 2.8573502,-3.196359 2.8573502,-3.244789 0,-0.05904 -1.267796,-1.496013 -2.8261693,-3.2102925 C 6.602068,6.563502 5.6069374,5.5683712 5.1339188,5.3540864 4.4154344,5.0018102 3.2544487,4.9427657 2.518052,5.2333438 Z M 18.85478,5.3408181 c -0.445818,0.2282166 -1.561691,1.330158 -3.489592,3.4418261 -1.558374,1.7136148 -2.830151,3.1512468 -2.830151,3.2102918 0,0.06236 1.285709,1.516579 2.861332,3.244788 3.133999,3.441825 3.472342,3.70056 4.955087,3.717808 0.918837,0 2.173365,-0.521447 2.24966,-0.936086 0.01394,-0.137992 -1.133124,-1.513262 -2.570755,-3.088885 -1.420383,-1.572307 -2.598618,-2.905781 -2.598618,-2.936961 0,-0.02786 1.178235,-1.361339 2.598618,-2.9369641 1.437631,-1.5723065 2.584685,-2.9508943 2.570755,-3.0716367 -0.07629,-0.3973887 -1.209417,-0.8571391 -2.187298,-0.9188371 -0.705215,-0.03118 -1.071424,0.03118 -1.558374,0.2766461 z M 8.4059078,16.384115 c -1.8967185,2.097071 -3.4550931,3.869731 -3.4862738,3.946025 -0.031181,0.06236 0.183104,0.276646 0.4597502,0.473683 0.3662082,0.276645 0.763597,0.383456 1.5132621,0.414636 1.3925191,0.08957 1.9106511,-0.231532 3.6693777,-2.218477 0.766914,-0.85714 1.423701,-1.575625 1.437633,-1.575625 0.01725,0 0.674034,0.718485 1.45488,1.589557 1.789908,1.990261 2.262927,2.280839 3.655446,2.204545 0.749666,-0.03118 1.147055,-0.137991 1.513263,-0.414636 0.276646,-0.197037 0.490932,-0.411323 0.459751,-0.473683 -0.07629,-0.228216 -7.007711,-7.801824 -7.128454,-7.784576 -0.06236,0 -1.651916,1.727547 -3.5486352,3.838551 z"
     id="path2"
     style="stroke-width:0.66342" />
</svg>
